<svg height="682pt" viewBox="-22 -21 682 682.66669" width="682pt" xmlns="http://www.w3.org/2000/svg"><path d="m424.351562 301.25h214.878907c-6.007813-103.921875-61.597657-194.53125-143.476563-248.539062l-107.453125 186.113281c18.53125 15.660156 31.613281 37.539062 36.050781 62.425781zm0 0"/><path d="m251.261719 238.824219-107.453125-186.113281c-81.875 54.007812-137.46875 144.617187-143.476563 248.539062h214.882813c4.433594-24.886719 17.515625-46.765625 36.046875-62.425781zm0 0"/><path d="m319.78125 213.75c12.660156 0 24.800781 2.226562 36.066406 6.289062l107.445313-186.109374c-43.160157-21.699219-91.90625-33.929688-143.511719-33.929688s-100.347656 12.230469-143.511719 33.929688l107.453125 186.109374c11.257813-4.0625 23.398438-6.289062 36.058594-6.289062zm0 0"/><path d="m388.300781 401.175781 107.453125 186.113281c81.878906-54.007812 137.46875-144.617187 143.476563-248.539062h-214.878907c-4.4375 24.886719-17.519531 46.765625-36.050781 62.425781zm0 0"/><path d="m319.78125 426.25c-12.660156 0-24.800781-2.226562-36.058594-6.289062l-107.457031 186.109374c43.167969 21.703126 91.910156 33.929688 143.515625 33.929688s100.351562-12.226562 143.515625-33.929688l-107.449219-186.109374c-11.265625 4.0625-23.40625 6.289062-36.066406 6.289062zm0 0"/><path d="m215.214844 338.75h-214.882813c6.007813 103.921875 61.601563 194.53125 143.476563 248.539062l107.453125-186.113281c-18.53125-15.660156-31.613281-37.539062-36.046875-62.425781zm0 0"/></svg>