<svg height="682pt" viewBox="-56 -21 682 682.66534" width="682pt" xmlns="http://www.w3.org/2000/svg"><path d="m484.628906 83.492188c-53.84375-53.839844-125.425781-83.492188-201.566406-83.492188-76.144531 0-147.730469 29.652344-201.566406 83.492188-53.84375 53.839843-83.496094 125.421874-83.496094 201.566406 0 63.300781 21.277344 125.191406 60.046875 175.003906l-38.9375 164.382812c-1.109375 4.675782.527344 9.570313 4.222656 12.644532 2.3125 1.917968 5.179688 2.910156 8.074219 2.910156 1.734375 0 3.484375-.359375 5.128906-1.089844l175.1875-77.8125c23.234375 5.992188 47.207032 9.023438 71.339844 9.023438 76.140625 0 147.722656-29.652344 201.566406-83.496094 53.84375-53.835938 83.492188-125.425781 83.492188-201.566406 0-76.144532-29.652344-147.726563-83.492188-201.566406zm-201.566406 461.34375c-23.398438 0-46.625-3.125-69.042969-9.285157-2.816406-.777343-5.8125-.550781-8.480469.632813l-155.957031 69.269531 34.480469-145.535156c.910156-3.824219-.019531-7.851563-2.5-10.898438-37.582031-46.132812-58.28125-104.363281-58.28125-163.960937 0-143.242188 116.535156-259.78125 259.78125-259.78125 143.242188 0 259.773438 116.539062 259.773438 259.78125 0 143.246094-116.53125 259.777344-259.773438 259.777344zm0 0"/><path d="m462.835938 283.289062c0-99.125-80.648438-179.773437-179.773438-179.773437s-179.773438 80.648437-179.773438 179.773437c0 99.132813 80.648438 179.777344 179.773438 179.777344s179.773438-80.644531 179.773438-179.777344zm-179.773438 154.5c-85.191406 0-154.496094-69.308593-154.496094-154.492187 0-85.191406 69.304688-154.5 154.496094-154.5 85.183594 0 154.492188 69.308594 154.492188 154.5 0 85.183594-69.308594 154.492187-154.492188 154.492187zm0 0"/><path d="m480.015625 378.519531c-6.660156-2.132812-13.769531 1.527344-15.898437 8.175781-10.664063 33.226563-40.382813 56.113282-63.4375 69.457032-6.039063 3.5-8.105469 11.230468-4.609376 17.269531 2.34375 4.046875 6.585938 6.3125 10.953126 6.3125 2.148437 0 4.324218-.550781 6.316406-1.703125 26.90625-15.570312 61.722656-42.722656 74.84375-83.613281 2.132812-6.644531-1.523438-13.765625-8.167969-15.898438zm0 0"/><path d="m368.609375 479.890625c-6.476563-2.621094-13.84375.496094-16.464844 6.964844l-.054687.132812c-2.621094 6.464844.492187 13.835938 6.964844 16.460938 1.554687.632812 3.164062.929687 4.746093.929687 4.992188 0 9.726563-2.980468 11.71875-7.890625l.050781-.132812c2.625-6.46875-.492187-13.835938-6.960937-16.464844zm0 0"/><path d="m282.6875 364.414062c-6.113281 0-11.03125 2.1875-14.738281 6.546876-3.710938 4.371093-5.5625 9.609374-5.5625 15.71875 0 5.886718 1.851562 11.078124 5.5625 15.546874 3.710937 4.476563 8.625 6.714844 14.738281 6.714844 6.101562 0 11.339844-2.238281 15.710938-6.714844 4.359374-4.46875 6.546874-9.660156 6.546874-15.546874 0-6.109376-2.1875-11.347657-6.546874-15.71875-4.371094-4.359376-9.609376-6.546876-15.710938-6.546876zm0 0"/><path d="m335.71875 182.070312c-12.226562-10.472656-28.59375-15.714843-49.105469-15.714843-18.335937 0-32.960937 4.148437-43.867187 12.4375-10.917969 8.296875-16.367188 17.027343-16.367188 26.191406 0 5.023437 1.679688 8.898437 5.050782 11.621094 3.371093 2.730469 7.125 4.09375 11.257812 4.09375 3.253906 0 6.136719-1.109375 8.636719-3.339844 2.503906-2.226563 4.625-4.605469 6.367187-7.136719 1.738282-2.527344 5-4.90625 9.789063-7.136718 4.78125-2.226563 10.761719-3.339844 17.933593-3.339844 10.226563 0 18.378907 2.425781 24.46875 7.285156 6.089844 4.851562 9.136719 11.699219 9.136719 20.546875 0 5.175781-1.253906 10.195313-3.765625 15.046875-2.507812 4.855469-5.023437 8.523438-7.527344 11.003906-2.511718 2.480469-6.277343 5.878906-11.296874 10.195313l-9.492188 7.761719c-13.09375 11.65625-19.640625 28.695312-19.640625 51.132812 0 6.90625 1.140625 11.652344 3.429687 14.238281 2.296876 2.59375 6.167969 3.886719 11.628907 3.886719 10.90625 0 16.367187-3.929688 16.367187-11.785156 0-11.128906.867188-19.644532 2.621094-25.539063 1.738281-5.886719 6.324219-11.78125 13.746094-17.675781l6.257812-5.238281 8.574219-8.183594c1.761719-1.742187 4.464844-4.855469 8.097656-9.332031 3.632813-4.46875 6.390625-8.511719 8.261719-12.109375 1.875-3.601563 3.632812-8.023438 5.28125-13.261719 1.65625-5.234375 2.484375-10.582031 2.484375-16.039062 0-15.929688-6.105469-29.136719-18.328125-39.609376zm0 0"/></svg>