<svg height="463pt" viewBox="-23 0 463 463.99148" width="463pt" xmlns="http://www.w3.org/2000/svg"><path d="m328.496094 237.816406c-.003906-3.09375 1.777344-5.910156 4.570312-7.234375 2.792969-1.328125 6.101563-.921875 8.492188 1.035157l25.335937 20.726562 49.601563-68.351562-83.289063-56.496094-69.511719-13.90625c-4.65625 26.835937-27.941406 46.429687-55.175781 46.429687s-50.519531-19.59375-55.175781-46.429687l-69.792969 13.960937-83.054687 48.441407 49.648437 75.6875 24.96875-22.703126c2.339844-2.132812 5.722657-2.679687 8.617188-1.398437 2.898437 1.28125 4.765625 4.148437 4.765625 7.316406v229.097657h240zm0 0"/><path d="m208.496094 143.992188c19.875-.058594 36.679687-14.71875 39.441406-34.402344l-39.441406-13.167969-39.441406 13.167969c2.757812 19.683594 19.566406 34.34375 39.441406 34.402344zm0 0"/><path d="m208.496094 47.992188c-4.417969 0-8 3.582031-8 8v24c0 4.421874 3.582031 0 8 0 4.414062 0 8 4.421874 8 0v-17.136719c16.058594-4.1875 26.238281-19.972657 23.425781-36.332031-2.816406-16.355469-17.6875-27.832032-34.226563-26.40625-16.535156 1.425781-29.222656 15.277343-29.199218 31.875 0 4.417968 3.582031 8 8 8 4.417968 0 8-3.582032 8-8 0-8.835938 7.164062-16 16-16 8.835937 0 16 7.164062 16 16 0 8.835937-7.164063 16-16 16zm0 0"/></svg>